<?xml version="1.0" encoding="UTF-8"?>
<svg id="Layer_1" data-name="Layer 1" xmlns="http://www.w3.org/2000/svg" viewBox="0 0 288 38">
  <defs>
    <style>
      .cls-1 {
        fill: #606061;
      }

      .cls-1, .cls-2, .cls-3, .cls-4 {
        stroke-width: 0px;
      }

      .cls-2 {
        fill: #bb0e3d;
      }

      .cls-3 {
        fill: #ba1f40;
      }

      .cls-4 {
        fill: #fff;
      }
    </style>
  </defs>
  <g id="NCI">
    <path class="cls-2" d="m65.08,1.6h1.49v6.67h-1.49l-3.18-4.18v4.18h-1.49V1.6h1.39l3.27,4.29V1.6Z"/>
    <path class="cls-2" d="m72.95,8.27l-.62-1.44h-2.79l-.62,1.44h-1.58l2.88-6.67h1.44l2.88,6.67h-1.58Zm-2.01-4.68l-.84,1.94h1.67l-.83-1.94Z"/>
    <path class="cls-2" d="m77.65,2.89v5.38h-1.49V2.89h-1.89v-1.29h5.26v1.29h-1.89Z"/>
    <path class="cls-2" d="m80.62,1.6h1.49v6.67h-1.49V1.6Z"/>
    <path class="cls-2" d="m89.36,7.35c-.67.66-1.5.99-2.49.99s-1.82-.33-2.49-.99c-.67-.66-1.01-1.48-1.01-2.46s.34-1.8,1.01-2.46c.67-.66,1.5-.99,2.49-.99s1.82.33,2.49.99c.67.66,1.01,1.48,1.01,2.46s-.34,1.8-1.01,2.46Zm-.51-2.45c0-.59-.19-1.1-.57-1.52-.38-.42-.85-.63-1.41-.63s-1.03.21-1.41.63-.57.93-.57,1.52.19,1.1.57,1.52c.38.42.85.62,1.41.62s1.03-.21,1.41-.62c.38-.42.57-.92.57-1.52Z"/>
    <path class="cls-2" d="m96.29,1.6h1.49v6.67h-1.49l-3.18-4.18v4.18h-1.49V1.6h1.39l3.27,4.29V1.6Z"/>
    <path class="cls-2" d="m104.17,8.27l-.62-1.44h-2.79l-.62,1.44h-1.58l2.88-6.67h1.44l2.88,6.67h-1.58Zm-2.01-4.68l-.84,1.94h1.67l-.83-1.94Z"/>
    <path class="cls-2" d="m106.52,8.27V1.6h1.49v5.34h2.84v1.33h-4.33Z"/>
    <path class="cls-2" d="m117.52,6.95c.73,0,1.33-.29,1.79-.87l.95.98c-.76.85-1.65,1.28-2.68,1.28s-1.87-.32-2.54-.97c-.66-.65-1-1.47-1-2.46s.34-1.81,1.02-2.47c.68-.66,1.51-.99,2.48-.99,1.09,0,2.01.42,2.75,1.25l-.93,1.05c-.47-.58-1.06-.88-1.75-.88-.56,0-1.04.18-1.44.55-.4.37-.6.86-.6,1.48s.19,1.12.56,1.49c.37.38.83.56,1.36.56Z"/>
    <path class="cls-2" d="m126.14,8.27l-.62-1.44h-2.79l-.62,1.44h-1.58l2.88-6.67h1.44l2.88,6.67h-1.58Zm-2.01-4.68l-.84,1.94h1.67l-.83-1.94Z"/>
    <path class="cls-2" d="m133.16,1.6h1.49v6.67h-1.49l-3.18-4.18v4.18h-1.49V1.6h1.39l3.27,4.29V1.6Z"/>
    <path class="cls-2" d="m139.35,6.95c.73,0,1.33-.29,1.79-.87l.95.98c-.76.85-1.65,1.28-2.68,1.28s-1.87-.32-2.54-.97c-.66-.65-1-1.47-1-2.46s.34-1.81,1.02-2.47c.68-.66,1.5-.99,2.48-.99,1.09,0,2.01.42,2.75,1.25l-.93,1.05c-.47-.58-1.06-.88-1.75-.88-.56,0-1.04.18-1.44.55-.4.37-.6.86-.6,1.48s.19,1.12.56,1.49c.37.38.83.56,1.36.56Z"/>
    <path class="cls-2" d="m148.08,1.6v1.33h-3.32v1.37h2.99v1.27h-2.99v1.38h3.42v1.32h-4.91V1.6h4.81Z"/>
    <path class="cls-2" d="m154.92,3.82c0,1.07-.42,1.76-1.27,2.07l1.69,2.38h-1.83l-1.48-2.13h-1.03v2.13h-1.49V1.6h2.53c1.04,0,1.78.17,2.22.52s.66.91.66,1.69Zm-1.79.79c.18-.17.28-.43.28-.79s-.09-.61-.29-.74-.52-.2-1-.2h-1.12v1.97h1.09c.51,0,.85-.08,1.04-.25Z"/>
    <path class="cls-2" d="m158.96,1.6h1.49v6.67h-1.49V1.6Z"/>
    <path class="cls-2" d="m166.75,1.6h1.49v6.67h-1.49l-3.18-4.18v4.18h-1.49V1.6h1.39l3.27,4.29V1.6Z"/>
    <path class="cls-2" d="m171.44,2.93c-.14.12-.21.27-.21.47s.09.35.26.46c.18.11.58.25,1.21.41s1.12.39,1.47.7c.35.31.52.77.52,1.36s-.22,1.08-.67,1.45-1.04.56-1.77.56c-1.06,0-2.01-.39-2.85-1.17l.89-1.09c.72.63,1.38.94,1.99.94.27,0,.49-.06.64-.18.16-.12.23-.28.23-.48s-.08-.36-.25-.48-.49-.24-.98-.36c-.78-.18-1.34-.42-1.7-.72s-.54-.76-.54-1.39.23-1.12.68-1.46c.45-.34,1.02-.52,1.7-.52.45,0,.89.08,1.34.23.44.15.83.37,1.16.65l-.75,1.09c-.58-.44-1.18-.66-1.79-.66-.25,0-.44.06-.59.18Z"/>
    <path class="cls-2" d="m178.73,2.89v5.38h-1.49V2.89h-1.89v-1.29h5.26v1.29h-1.89Z"/>
    <path class="cls-2" d="m181.71,1.6h1.49v6.67h-1.49V1.6Z"/>
    <path class="cls-2" d="m187.66,2.89v5.38h-1.49V2.89h-1.89v-1.29h5.26v1.29h-1.89Z"/>
    <path class="cls-2" d="m192.4,6.55c.25.31.58.46,1,.46s.75-.15,1-.46c.24-.31.37-.73.37-1.26V1.6h1.49v3.73c0,.97-.27,1.71-.8,2.23-.53.52-1.22.78-2.05.78s-1.52-.26-2.06-.78-.81-1.26-.81-2.22V1.6h1.49v3.68c0,.53.12.95.37,1.26Z"/>
    <path class="cls-2" d="m200.62,2.89v5.38h-1.49V2.89h-1.89v-1.29h5.26v1.29h-1.89Z"/>
    <path class="cls-2" d="m208.4,1.6v1.33h-3.32v1.37h2.99v1.27h-2.99v1.38h3.42v1.32h-4.91V1.6h4.81Z"/>
  </g>
  <g id="NIH_Luggage_Tag" data-name="NIH Luggage Tag">
    <path class="cls-1" d="m45.05,18.95L36.08,2.8H3.64C1.73,2.8.19,4.35.19,6.26v25.38c0,1.91,1.54,3.46,3.45,3.46h32.44l8.97-16.15Z"/>
    <path class="cls-3" d="m44.15,4.49c-.63-1.04-1.77-1.68-3-1.68h-2.68l9.09,16.15-9.09,16.15h2.68c1.23,0,2.37-.64,3-1.68l8.07-14.47-8.07-14.47Z"/>
    <rect class="cls-4" x="19.33" y="11.77" width="2.39" height="14.36"/>
    <polygon class="cls-4" points="14.54 11.77 14.54 22.3 7.97 11.77 5.57 11.77 5.57 26.13 7.97 26.13 7.97 15.6 14.54 26.13 16.94 26.13 16.94 11.77 14.54 11.77"/>
    <polygon class="cls-4" points="33.09 11.77 33.09 17.76 26.51 17.76 26.51 11.77 24.12 11.77 24.12 26.13 26.51 26.13 26.51 20.15 33.09 20.15 33.09 26.13 35.48 26.13 35.48 11.77 33.09 11.77"/>
  </g>
  <g>
    <path class="cls-1" d="m68.75,21.08v-5.04s-2.48,4.15-2.48,4.15h-.88l-2.46-4.04v4.93h-1.82v-8.4h1.61l3.14,5.22,3.09-5.22h1.6l.02,8.4h-1.82Z"/>
    <path class="cls-1" d="m71.96,17.85c0-1.94,1.5-3.32,3.55-3.32s3.54,1.38,3.54,3.32-1.49,3.32-3.54,3.32-3.55-1.38-3.55-3.32Zm5.19,0c0-1.12-.71-1.79-1.64-1.79s-1.65.67-1.65,1.79.72,1.79,1.65,1.79,1.64-.67,1.64-1.79Z"/>
    <path class="cls-1" d="m79.67,20.48l.62-1.34c.58.37,1.45.62,2.24.62.86,0,1.19-.23,1.19-.59,0-1.06-3.9.02-3.9-2.55,0-1.22,1.1-2.09,2.99-2.09.89,0,1.87.2,2.48.56l-.62,1.33c-.64-.36-1.27-.48-1.86-.48-.84,0-1.2.26-1.2.6,0,1.1,3.9.04,3.9,2.58,0,1.2-1.12,2.05-3.05,2.05-1.09,0-2.2-.3-2.79-.7Z"/>
    <path class="cls-1" d="m92.38,17.4v3.68h-1.75v-.8c-.35.59-1.02.9-1.97.9-1.51,0-2.41-.84-2.41-1.95s.8-1.93,2.77-1.93h1.49c0-.8-.48-1.27-1.49-1.27-.68,0-1.39.23-1.86.6l-.67-1.31c.71-.5,1.75-.78,2.78-.78,1.97,0,3.11.91,3.11,2.87Zm-1.87,1.64v-.66h-1.28c-.88,0-1.15.32-1.15.76,0,.47.4.78,1.06.78.62,0,1.16-.29,1.38-.88Z"/>
    <path class="cls-1" d="m93.85,12.68c0-.59.47-1.04,1.16-1.04s1.16.43,1.16,1.01c0,.62-.47,1.08-1.16,1.08s-1.16-.46-1.16-1.04Zm.23,1.94h1.87v6.45h-1.87v-6.45Z"/>
    <path class="cls-1" d="m97.21,17.85c0-1.94,1.5-3.32,3.6-3.32,1.35,0,2.42.59,2.89,1.64l-1.45.78c-.35-.61-.86-.89-1.45-.89-.95,0-1.69.66-1.69,1.79s.74,1.79,1.69,1.79c.59,0,1.1-.26,1.45-.89l1.45.79c-.47,1.03-1.54,1.63-2.89,1.63-2.1,0-3.6-1.38-3.6-3.32Z"/>
    <path class="cls-1" d="m107.78,16.88c0-2.53,1.94-4.34,4.56-4.34,1.45,0,2.66.53,3.45,1.49l-1.25,1.15c-.56-.65-1.27-.98-2.11-.98-1.57,0-2.69,1.1-2.69,2.69s1.12,2.69,2.69,2.69c.84,0,1.55-.34,2.11-1l1.25,1.15c-.79.97-2,1.5-3.47,1.5-2.6,0-4.54-1.81-4.54-4.34Z"/>
    <path class="cls-1" d="m123.57,17.38v3.69h-1.87v-3.41c0-1.04-.48-1.52-1.31-1.52-.9,0-1.55.55-1.55,1.74v3.19h-1.87v-8.9h1.87v3.12c.5-.5,1.22-.77,2.05-.77,1.52,0,2.67.89,2.67,2.85Z"/>
    <path class="cls-1" d="m129.27,14.53v1.73c-.16-.01-.28-.02-.42-.02-1.03,0-1.72.56-1.72,1.8v3.05h-1.87v-6.45h1.79v.85c.46-.62,1.22-.95,2.22-.95Z"/>
    <path class="cls-1" d="m129.85,17.85c0-1.94,1.5-3.32,3.55-3.32s3.54,1.38,3.54,3.32-1.49,3.32-3.54,3.32-3.55-1.38-3.55-3.32Zm5.19,0c0-1.12-.71-1.79-1.64-1.79s-1.66.67-1.66,1.79.72,1.79,1.66,1.79,1.64-.67,1.64-1.79Z"/>
    <path class="cls-1" d="m149.09,17.38v3.69h-1.87v-3.41c0-1.04-.47-1.52-1.22-1.52-.84,0-1.43.54-1.43,1.69v3.24h-1.87v-3.41c0-1.04-.44-1.52-1.22-1.52-.83,0-1.42.54-1.42,1.69v3.24h-1.87v-6.45h1.79v.74c.48-.55,1.2-.84,2.03-.84.9,0,1.67.35,2.12,1.06.52-.66,1.36-1.06,2.33-1.06,1.54,0,2.64.89,2.64,2.85Z"/>
    <path class="cls-1" d="m150.37,17.85c0-1.94,1.5-3.32,3.55-3.32s3.54,1.38,3.54,3.32-1.49,3.32-3.54,3.32-3.55-1.38-3.55-3.32Zm5.19,0c0-1.12-.71-1.79-1.64-1.79s-1.66.67-1.66,1.79.72,1.79,1.66,1.79,1.64-.67,1.64-1.79Z"/>
    <path class="cls-1" d="m158.08,20.48l.62-1.34c.58.37,1.45.62,2.24.62.86,0,1.19-.23,1.19-.59,0-1.06-3.9.02-3.9-2.55,0-1.22,1.1-2.09,2.99-2.09.89,0,1.87.2,2.48.56l-.62,1.33c-.64-.36-1.27-.48-1.86-.48-.84,0-1.2.26-1.2.6,0,1.1,3.9.04,3.9,2.58,0,1.2-1.12,2.05-3.05,2.05-1.09,0-2.2-.3-2.79-.7Z"/>
    <path class="cls-1" d="m164.6,17.85c0-1.94,1.5-3.32,3.55-3.32s3.54,1.38,3.54,3.32-1.49,3.32-3.54,3.32-3.55-1.38-3.55-3.32Zm5.19,0c0-1.12-.71-1.79-1.64-1.79s-1.65.67-1.65,1.79.72,1.79,1.65,1.79,1.64-.67,1.64-1.79Z"/>
    <path class="cls-1" d="m183.84,17.38v3.69h-1.87v-3.41c0-1.04-.47-1.52-1.22-1.52-.84,0-1.43.54-1.43,1.69v3.24h-1.87v-3.41c0-1.04-.44-1.52-1.22-1.52-.83,0-1.42.54-1.42,1.69v3.24h-1.87v-6.45h1.79v.74c.48-.55,1.2-.84,2.03-.84.9,0,1.67.35,2.12,1.06.52-.66,1.36-1.06,2.33-1.06,1.54,0,2.64.89,2.64,2.85Z"/>
    <path class="cls-1" d="m191.23,17.4v3.68h-1.75v-.8c-.35.59-1.02.9-1.97.9-1.51,0-2.41-.84-2.41-1.95s.8-1.93,2.77-1.93h1.49c0-.8-.48-1.27-1.49-1.27-.68,0-1.39.23-1.86.6l-.67-1.31c.71-.5,1.75-.78,2.78-.78,1.97,0,3.11.91,3.11,2.87Zm-1.87,1.64v-.66h-1.28c-.88,0-1.15.32-1.15.76,0,.47.4.78,1.06.78.62,0,1.16-.29,1.38-.88Z"/>
    <path class="cls-1" d="m192.93,12.18h1.87v8.9h-1.87v-8.9Z"/>
    <path class="cls-1" d="m66.64,31.78h-3.9l-.74,1.8h-1.99l3.74-8.4h1.92l3.75,8.4h-2.04l-.74-1.8Zm-.61-1.48l-1.33-3.21-1.33,3.21h2.66Z"/>
    <path class="cls-1" d="m70.17,24.68h1.87v8.9h-1.87v-8.9Z"/>
    <path class="cls-1" d="m78.41,33.27c-.38.28-.95.41-1.52.41-1.52,0-2.41-.78-2.41-2.31v-2.65h-1v-1.44h1v-1.57h1.87v1.57h1.61v1.44h-1.61v2.63c0,.55.3.85.8.85.28,0,.55-.08.75-.24l.5,1.32Z"/>
    <path class="cls-1" d="m85.55,30.88h-4.88c.18.8.86,1.3,1.85,1.3.68,0,1.17-.2,1.62-.62l1,1.08c-.6.68-1.5,1.04-2.66,1.04-2.23,0-3.68-1.4-3.68-3.32s1.47-3.32,3.44-3.32,3.36,1.27,3.36,3.35c0,.14-.02.35-.04.5Zm-4.9-1.09h3.18c-.13-.82-.74-1.34-1.58-1.34s-1.46.52-1.59,1.34Z"/>
    <path class="cls-1" d="m90.84,27.03v1.73c-.16-.01-.28-.02-.42-.02-1.03,0-1.72.56-1.72,1.8v3.05h-1.87v-6.45h1.79v.85c.46-.62,1.22-.95,2.22-.95Z"/>
    <path class="cls-1" d="m97.63,29.9v3.68h-1.75v-.8c-.35.59-1.02.9-1.97.9-1.51,0-2.41-.84-2.41-1.95s.8-1.93,2.77-1.93h1.49c0-.8-.48-1.27-1.49-1.27-.68,0-1.39.23-1.86.6l-.67-1.31c.71-.5,1.75-.78,2.78-.78,1.97,0,3.11.91,3.11,2.87Zm-1.87,1.64v-.66h-1.28c-.88,0-1.15.32-1.15.76,0,.47.4.78,1.06.78.62,0,1.16-.29,1.38-.88Z"/>
    <path class="cls-1" d="m103.49,33.27c-.38.28-.95.41-1.52.41-1.52,0-2.41-.78-2.41-2.31v-2.65h-1v-1.44h1v-1.57h1.87v1.57h1.61v1.44h-1.61v2.63c0,.55.3.85.8.85.28,0,.55-.08.75-.24l.5,1.32Z"/>
    <path class="cls-1" d="m104.32,25.18c0-.59.47-1.04,1.16-1.04s1.16.43,1.16,1.01c0,.62-.47,1.08-1.16,1.08s-1.16-.46-1.16-1.04Zm.23,1.94h1.87v6.45h-1.87v-6.45Z"/>
    <path class="cls-1" d="m107.68,30.35c0-1.94,1.5-3.32,3.55-3.32s3.54,1.38,3.54,3.32-1.49,3.32-3.54,3.32-3.55-1.38-3.55-3.32Zm5.19,0c0-1.12-.71-1.79-1.64-1.79s-1.65.67-1.65,1.79.72,1.79,1.65,1.79,1.64-.67,1.64-1.79Z"/>
    <path class="cls-1" d="m122.62,29.88v3.69h-1.87v-3.41c0-1.04-.48-1.52-1.31-1.52-.9,0-1.55.55-1.55,1.74v3.19h-1.87v-6.45h1.79v.76c.5-.55,1.26-.85,2.13-.85,1.52,0,2.68.89,2.68,2.85Z"/>
    <path class="cls-1" d="m134.34,32.02v1.56h-6.5v-8.4h6.34v1.56h-4.41v1.82h3.9v1.51h-3.9v1.94h4.57Z"/>
    <path class="cls-1" d="m139.78,33.58l-1.42-1.98-1.46,1.98h-2.04l2.48-3.25-2.4-3.2h2.1l1.37,1.88,1.4-1.88h1.99l-2.4,3.15,2.49,3.3h-2.12Z"/>
    <path class="cls-1" d="m149.84,30.35c0,2.03-1.4,3.32-3.21,3.32-.8,0-1.46-.25-1.94-.78v3.01h-1.87v-8.78h1.79v.74c.47-.56,1.16-.84,2.03-.84,1.81,0,3.21,1.3,3.21,3.32Zm-1.89,0c0-1.12-.71-1.79-1.64-1.79s-1.64.67-1.64,1.79.71,1.79,1.64,1.79,1.64-.67,1.64-1.79Z"/>
    <path class="cls-1" d="m151.1,24.68h1.87v8.9h-1.87v-8.9Z"/>
    <path class="cls-1" d="m154.23,30.35c0-1.94,1.5-3.32,3.55-3.32s3.54,1.38,3.54,3.32-1.49,3.32-3.54,3.32-3.55-1.38-3.55-3.32Zm5.19,0c0-1.12-.71-1.79-1.64-1.79s-1.65.67-1.65,1.79.72,1.79,1.65,1.79,1.64-.67,1.64-1.79Z"/>
    <path class="cls-1" d="m166.57,27.03v1.73c-.16-.01-.28-.02-.42-.02-1.03,0-1.72.56-1.72,1.8v3.05h-1.87v-6.45h1.79v.85c.46-.62,1.22-.95,2.22-.95Z"/>
    <path class="cls-1" d="m173.92,30.88h-4.88c.18.8.86,1.3,1.85,1.3.68,0,1.18-.2,1.62-.62l1,1.08c-.6.68-1.5,1.04-2.66,1.04-2.23,0-3.68-1.4-3.68-3.32s1.48-3.32,3.44-3.32,3.36,1.27,3.36,3.35c0,.14-.02.35-.04.5Zm-4.91-1.09h3.18c-.13-.82-.74-1.34-1.58-1.34s-1.46.52-1.6,1.34Z"/>
    <path class="cls-1" d="m179.21,27.03v1.73c-.16-.01-.28-.02-.42-.02-1.03,0-1.71.56-1.71,1.8v3.05h-1.87v-6.45h1.79v.85c.46-.62,1.22-.95,2.22-.95Z"/>
  </g>
</svg>